<svg width="15" height="10" viewBox="0 0 15 10" fill="none" xmlns="http://www.w3.org/2000/svg">
<path d="M12.346 7.44256C12.516 7.44235 12.6789 7.37056 12.7991 7.24294C12.9193 7.11533 12.9869 6.94231 12.9871 6.76183V0.680721C12.9869 0.500247 12.9193 0.327225 12.7991 0.199611C12.6789 0.0719963 12.516 0.000210185 12.346 0H2.517C2.34705 0.000210185 2.18412 0.0719963 2.06395 0.199611C1.94377 0.327225 1.87617 0.500247 1.87598 0.680721V6.76183C1.87617 6.94231 1.94377 7.11533 2.06395 7.24294C2.18412 7.37056 2.34705 7.44235 2.517 7.44256H12.346ZM2.73068 0.907629H12.1324V6.53493H2.73068V0.907629Z" fill="#383838"/>
<path d="M0.54248 8.85805C0.54248 8.55729 0.786295 8.31348 1.08705 8.31348H13.9979C14.2987 8.31348 14.5425 8.55729 14.5425 8.85805V8.85805C14.5425 9.15881 14.2987 9.40262 13.9979 9.40262H1.08705C0.786294 9.40262 0.54248 9.15881 0.54248 8.85805V8.85805Z" fill="#383838"/>
</svg>
