<svg width="12" height="12" viewBox="0 0 12 12" fill="none" xmlns="http://www.w3.org/2000/svg">
<path d="M5.96231 0.375C3.5248 0.375 1.44355 1.95 0.674805 4.125H11.2873C10.4998 1.95 8.41856 0.375 5.96231 0.375Z" fill="#F2B200"/>
<path d="M5.9623 11.625C8.41855 11.625 10.4998 10.0687 11.2686 7.875H0.674805C1.44355 10.0687 3.5248 11.625 5.9623 11.625Z" fill="#83BF4F"/>
<path d="M0.675195 4.125C0.468945 4.70625 0.356445 5.34375 0.356445 6C0.356445 6.65625 0.468945 7.29375 0.675195 7.875H11.2877C11.4939 7.29375 11.6064 6.65625 11.6064 6C11.6064 5.34375 11.4939 4.70625 11.2877 4.125H0.675195Z" fill="white"/>
<path d="M5.96265 7.5C6.79107 7.5 7.46265 6.82843 7.46265 6C7.46265 5.17157 6.79107 4.5 5.96265 4.5C5.13422 4.5 4.46265 5.17157 4.46265 6C4.46265 6.82843 5.13422 7.5 5.96265 7.5Z" fill="#428BC1"/>
<path d="M5.96265 7.3125C6.68752 7.3125 7.27515 6.72487 7.27515 6C7.27515 5.27513 6.68752 4.6875 5.96265 4.6875C5.23777 4.6875 4.65015 5.27513 4.65015 6C4.65015 6.72487 5.23777 7.3125 5.96265 7.3125Z" fill="white"/>
<path d="M5.4751 4.875C5.52687 4.875 5.56885 4.83303 5.56885 4.78125C5.56885 4.72947 5.52687 4.6875 5.4751 4.6875C5.42332 4.6875 5.38135 4.72947 5.38135 4.78125C5.38135 4.83303 5.42332 4.875 5.4751 4.875Z" fill="#428BC1"/>
<path d="M5.17529 5.04395C5.22707 5.04395 5.26904 5.00197 5.26904 4.9502C5.26904 4.89842 5.22707 4.85645 5.17529 4.85645C5.12352 4.85645 5.08154 4.89842 5.08154 4.9502C5.08154 5.00197 5.12352 5.04395 5.17529 5.04395Z" fill="#428BC1"/>
<path d="M4.93164 5.28711C4.98342 5.28711 5.02539 5.24514 5.02539 5.19336C5.02539 5.14158 4.98342 5.09961 4.93164 5.09961C4.87986 5.09961 4.83789 5.14158 4.83789 5.19336C4.83789 5.24514 4.87986 5.28711 4.93164 5.28711Z" fill="#428BC1"/>
<path d="M4.7627 5.58789C4.81447 5.58789 4.85645 5.54592 4.85645 5.49414C4.85645 5.44236 4.81447 5.40039 4.7627 5.40039C4.71092 5.40039 4.66895 5.44236 4.66895 5.49414C4.66895 5.54592 4.71092 5.58789 4.7627 5.58789Z" fill="#428BC1"/>
<path d="M4.66895 5.9248C4.72072 5.9248 4.7627 5.88283 4.7627 5.83105C4.7627 5.77928 4.72072 5.7373 4.66895 5.7373C4.61717 5.7373 4.5752 5.77928 4.5752 5.83105C4.5752 5.88283 4.61717 5.9248 4.66895 5.9248Z" fill="#428BC1"/>
<path d="M4.66895 6.2627C4.72072 6.2627 4.7627 6.22072 4.7627 6.16895C4.7627 6.11717 4.72072 6.0752 4.66895 6.0752C4.61717 6.0752 4.5752 6.11717 4.5752 6.16895C4.5752 6.22072 4.61717 6.2627 4.66895 6.2627Z" fill="#428BC1"/>
<path d="M4.7627 6.59961C4.81447 6.59961 4.85645 6.55764 4.85645 6.50586C4.85645 6.45408 4.81447 6.41211 4.7627 6.41211C4.71092 6.41211 4.66895 6.45408 4.66895 6.50586C4.66895 6.55764 4.71092 6.59961 4.7627 6.59961Z" fill="#428BC1"/>
<path d="M4.93164 6.90039C4.98342 6.90039 5.02539 6.85842 5.02539 6.80664C5.02539 6.75486 4.98342 6.71289 4.93164 6.71289C4.87986 6.71289 4.83789 6.75486 4.83789 6.80664C4.83789 6.85842 4.87986 6.90039 4.93164 6.90039Z" fill="#428BC1"/>
<path d="M5.17529 7.14355C5.22707 7.14355 5.26904 7.10158 5.26904 7.0498C5.26904 6.99803 5.22707 6.95605 5.17529 6.95605C5.12352 6.95605 5.08154 6.99803 5.08154 7.0498C5.08154 7.10158 5.12352 7.14355 5.17529 7.14355Z" fill="#428BC1"/>
<path d="M5.4751 7.3125C5.52687 7.3125 5.56885 7.27053 5.56885 7.21875C5.56885 7.16697 5.52687 7.125 5.4751 7.125C5.42332 7.125 5.38135 7.16697 5.38135 7.21875C5.38135 7.27053 5.42332 7.3125 5.4751 7.3125Z" fill="#428BC1"/>
<path d="M5.79395 7.3877C5.84572 7.3877 5.8877 7.34572 5.8877 7.29395C5.8877 7.24217 5.84572 7.2002 5.79395 7.2002C5.74217 7.2002 5.7002 7.24217 5.7002 7.29395C5.7002 7.34572 5.74217 7.3877 5.79395 7.3877Z" fill="#428BC1"/>
<path d="M6.05664 7.3127C6.05664 7.25645 6.09414 7.21895 6.13164 7.2002C6.18789 7.2002 6.22539 7.23769 6.24414 7.27519C6.24414 7.33144 6.20664 7.36895 6.16914 7.3877C6.09414 7.40645 6.05664 7.36895 6.05664 7.3127Z" fill="#428BC1"/>
<path d="M6.46875 7.3125C6.52053 7.3125 6.5625 7.27053 6.5625 7.21875C6.5625 7.16697 6.52053 7.125 6.46875 7.125C6.41697 7.125 6.375 7.16697 6.375 7.21875C6.375 7.27053 6.41697 7.3125 6.46875 7.3125Z" fill="#428BC1"/>
<path d="M6.76904 7.14355C6.82082 7.14355 6.86279 7.10158 6.86279 7.0498C6.86279 6.99803 6.82082 6.95605 6.76904 6.95605C6.71727 6.95605 6.67529 6.99803 6.67529 7.0498C6.67529 7.10158 6.71727 7.14355 6.76904 7.14355Z" fill="#428BC1"/>
<path d="M7.0127 6.90039C7.06447 6.90039 7.10645 6.85842 7.10645 6.80664C7.10645 6.75486 7.06447 6.71289 7.0127 6.71289C6.96092 6.71289 6.91895 6.75486 6.91895 6.80664C6.91895 6.85842 6.96092 6.90039 7.0127 6.90039Z" fill="#428BC1"/>
<path d="M7.18164 6.59961C7.23342 6.59961 7.27539 6.55764 7.27539 6.50586C7.27539 6.45408 7.23342 6.41211 7.18164 6.41211C7.12986 6.41211 7.08789 6.45408 7.08789 6.50586C7.08789 6.55764 7.12986 6.59961 7.18164 6.59961Z" fill="#428BC1"/>
<path d="M7.27539 6.2627C7.32717 6.2627 7.36914 6.22072 7.36914 6.16895C7.36914 6.11717 7.32717 6.0752 7.27539 6.0752C7.22361 6.0752 7.18164 6.11717 7.18164 6.16895C7.18164 6.22072 7.22361 6.2627 7.27539 6.2627Z" fill="#428BC1"/>
<path d="M7.2751 5.9248C7.21885 5.9248 7.18135 5.8873 7.1626 5.8498C7.1626 5.79355 7.2001 5.75605 7.2376 5.7373C7.29385 5.7373 7.33135 5.7748 7.3501 5.8123C7.36885 5.86855 7.33135 5.90605 7.2751 5.9248Z" fill="#428BC1"/>
<path d="M7.18164 5.58789C7.23342 5.58789 7.27539 5.54592 7.27539 5.49414C7.27539 5.44236 7.23342 5.40039 7.18164 5.40039C7.12986 5.40039 7.08789 5.44236 7.08789 5.49414C7.08789 5.54592 7.12986 5.58789 7.18164 5.58789Z" fill="#428BC1"/>
<path d="M7.0127 5.28711C7.06447 5.28711 7.10645 5.24514 7.10645 5.19336C7.10645 5.14158 7.06447 5.09961 7.0127 5.09961C6.96092 5.09961 6.91895 5.14158 6.91895 5.19336C6.91895 5.24514 6.96092 5.28711 7.0127 5.28711Z" fill="#428BC1"/>
<path d="M6.76904 5.04395C6.82082 5.04395 6.86279 5.00197 6.86279 4.9502C6.86279 4.89842 6.82082 4.85645 6.76904 4.85645C6.71727 4.85645 6.67529 4.89842 6.67529 4.9502C6.67529 5.00197 6.71727 5.04395 6.76904 5.04395Z" fill="#428BC1"/>
<path d="M6.5627 4.81895C6.54395 4.87519 6.4877 4.89394 6.43145 4.87519C6.3752 4.85644 6.35645 4.80019 6.3752 4.74394C6.39395 4.6877 6.4502 4.66895 6.50645 4.6877C6.5627 4.7252 6.58145 4.78145 6.5627 4.81895Z" fill="#428BC1"/>
<path d="M6.22534 4.70625C6.22534 4.7625 6.16909 4.8 6.11284 4.78125C6.05659 4.78125 6.01909 4.725 6.03784 4.66874C6.03784 4.61249 6.09409 4.57499 6.15034 4.59374C6.20659 4.61249 6.24409 4.66874 6.22534 4.70625Z" fill="#428BC1"/>
<path d="M5.8877 4.6873C5.8877 4.74355 5.8502 4.78105 5.8127 4.7998C5.75645 4.7998 5.71895 4.7623 5.7002 4.7248C5.7002 4.66855 5.7377 4.63105 5.7752 4.6123C5.83145 4.59355 5.8877 4.63105 5.8877 4.6873Z" fill="#428BC1"/>
<path d="M5.96289 6.28125C6.11822 6.28125 6.24414 6.15533 6.24414 6C6.24414 5.84467 6.11822 5.71875 5.96289 5.71875C5.80756 5.71875 5.68164 5.84467 5.68164 6C5.68164 6.15533 5.80756 6.28125 5.96289 6.28125Z" fill="#428BC1"/>
<path d="M5.96279 4.6875L5.92529 5.49375L5.96279 6L6.01904 5.49375L5.96279 4.6875Z" fill="#428BC1"/>
<path d="M5.625 4.72461L5.79375 5.53086L5.9625 5.99961L5.8875 5.49336L5.625 4.72461Z" fill="#428BC1"/>
<path d="M5.30664 4.85645L5.68164 5.58769L5.96289 6.00019L5.75664 5.53144L5.30664 4.85645Z" fill="#428BC1"/>
<path d="M5.04395 5.0625L5.5877 5.68125L5.9627 6L5.64395 5.60625L5.04395 5.0625Z" fill="#428BC1"/>
<path d="M4.83789 5.34375L5.51289 5.79375L5.96289 6L5.55039 5.7L4.83789 5.34375Z" fill="#428BC1"/>
<path d="M4.70654 5.66211L5.47529 5.90586L5.96279 5.99961L5.49404 5.83086L4.70654 5.66211Z" fill="#428BC1"/>
<path d="M4.65039 6.00039L5.47539 6.03789L5.96289 6.00039L5.47539 5.96289L4.65039 6.00039Z" fill="#428BC1"/>
<path d="M4.70654 6.3375L5.49404 6.16875L5.96279 6L5.47529 6.09375L4.70654 6.3375Z" fill="#428BC1"/>
<path d="M4.83789 6.65625L5.55039 6.3L5.96289 6L5.51289 6.20625L4.83789 6.65625Z" fill="#428BC1"/>
<path d="M5.04395 6.91875L5.64395 6.39375L5.9627 6L5.5877 6.31875L5.04395 6.91875Z" fill="#428BC1"/>
<path d="M5.30664 7.14375L5.75664 6.45L5.96289 6L5.68164 6.4125L5.30664 7.14375Z" fill="#428BC1"/>
<path d="M5.625 7.275L5.8875 6.50625L5.9625 6L5.79375 6.46875L5.625 7.275Z" fill="#428BC1"/>
<path d="M5.96279 7.3125L6.01904 6.50625L5.96279 6L5.92529 6.50625L5.96279 7.3125Z" fill="#428BC1"/>
<path d="M6.30039 7.275L6.15039 6.46875L5.96289 6L6.05664 6.50625L6.30039 7.275Z" fill="#428BC1"/>
<path d="M6.61914 7.14375L6.26289 6.4125L5.96289 6L6.18789 6.46875L6.61914 7.14375Z" fill="#428BC1"/>
<path d="M6.90039 6.91875L6.35664 6.31875L5.96289 6L6.30039 6.39375L6.90039 6.91875Z" fill="#428BC1"/>
<path d="M7.10664 6.65625L6.43164 6.20625L5.96289 6L6.37539 6.3L7.10664 6.65625Z" fill="#428BC1"/>
<path d="M7.23789 6.3375L6.46914 6.09375L5.96289 6L6.45039 6.16875L7.23789 6.3375Z" fill="#428BC1"/>
<path d="M7.27539 5.99961L6.46914 5.94336L5.96289 5.99961L6.46914 6.03711L7.27539 5.99961Z" fill="#428BC1"/>
<path d="M7.23789 5.66211L6.45039 5.83086L5.96289 5.99961L6.46914 5.90586L7.23789 5.66211Z" fill="#428BC1"/>
<path d="M7.10664 5.34375L6.37539 5.7L5.96289 6L6.43164 5.79375L7.10664 5.34375Z" fill="#428BC1"/>
<path d="M6.90039 5.08105L6.30039 5.60605L5.96289 5.9998L6.35664 5.68105L6.90039 5.08105Z" fill="#428BC1"/>
<path d="M6.61914 4.85645L6.18789 5.55019L5.96289 6.00019L6.26289 5.58769L6.61914 4.85645Z" fill="#428BC1"/>
<path d="M6.31914 4.72461L6.05664 5.49336L5.96289 5.99961L6.15039 5.53086L6.31914 4.72461Z" fill="#428BC1"/>
</svg>
