<svg width="107" height="30" viewBox="0 0 107 30" fill="none" xmlns="http://www.w3.org/2000/svg">
<g clip-path="url(#clip0)">
<path d="M34.9629 3.70166C35.6396 3.70166 36.1714 3.87012 36.5581 4.20703C36.9478 4.54102 37.1426 4.99951 37.1426 5.58252C37.1426 6.24756 36.9302 6.76904 36.5054 7.14697C36.0835 7.5249 35.5005 7.71387 34.7563 7.71387C34.0327 7.71387 33.4805 7.59814 33.0996 7.3667V6.66357C33.3047 6.79541 33.5596 6.89941 33.8643 6.97559C34.1689 7.04883 34.4692 7.08545 34.7651 7.08545C35.2808 7.08545 35.6807 6.96387 35.9648 6.7207C36.252 6.47754 36.3955 6.12598 36.3955 5.66602C36.3955 4.76953 35.8462 4.32129 34.7476 4.32129C34.4692 4.32129 34.0972 4.36377 33.6313 4.44873L33.2534 4.20703L33.4951 1.20117H36.6899V1.87354H34.1191L33.9565 3.80273C34.2935 3.73535 34.6289 3.70166 34.9629 3.70166Z" fill="#8F959E"/>
<path d="M42.3633 4.40479C42.3633 5.51514 42.1875 6.34424 41.8359 6.89209C41.4873 7.43994 40.9526 7.71387 40.2319 7.71387C39.5405 7.71387 39.0146 7.43408 38.6543 6.87451C38.2939 6.31201 38.1138 5.48877 38.1138 4.40479C38.1138 3.28564 38.2881 2.45508 38.6367 1.91309C38.9854 1.37109 39.5171 1.1001 40.2319 1.1001C40.9292 1.1001 41.458 1.38281 41.8184 1.94824C42.1816 2.51367 42.3633 3.33252 42.3633 4.40479ZM38.8521 4.40479C38.8521 5.33936 38.9619 6.02051 39.1816 6.44824C39.4014 6.87305 39.7515 7.08545 40.2319 7.08545C40.7183 7.08545 41.0698 6.87012 41.2866 6.43945C41.5063 6.00586 41.6162 5.32764 41.6162 4.40479C41.6162 3.48193 41.5063 2.80664 41.2866 2.37891C41.0698 1.94824 40.7183 1.73291 40.2319 1.73291C39.7515 1.73291 39.4014 1.94531 39.1816 2.37012C38.9619 2.79199 38.8521 3.47021 38.8521 4.40479Z" fill="#8F959E"/>
<path d="M47.5137 4.40479C47.5137 5.51514 47.3379 6.34424 46.9863 6.89209C46.6377 7.43994 46.103 7.71387 45.3823 7.71387C44.6909 7.71387 44.165 7.43408 43.8047 6.87451C43.4443 6.31201 43.2642 5.48877 43.2642 4.40479C43.2642 3.28564 43.4385 2.45508 43.7871 1.91309C44.1357 1.37109 44.6675 1.1001 45.3823 1.1001C46.0796 1.1001 46.6084 1.38281 46.9688 1.94824C47.332 2.51367 47.5137 3.33252 47.5137 4.40479ZM44.0024 4.40479C44.0024 5.33936 44.1123 6.02051 44.332 6.44824C44.5518 6.87305 44.9019 7.08545 45.3823 7.08545C45.8687 7.08545 46.2202 6.87012 46.437 6.43945C46.6567 6.00586 46.7666 5.32764 46.7666 4.40479C46.7666 3.48193 46.6567 2.80664 46.437 2.37891C46.2202 1.94824 45.8687 1.73291 45.3823 1.73291C44.9019 1.73291 44.5518 1.94531 44.332 2.37012C44.1123 2.79199 44.0024 3.47021 44.0024 4.40479Z" fill="#8F959E"/>
<path d="M51.7017 7.62598L51.5566 6.94043H51.5215C51.2812 7.24219 51.041 7.44727 50.8008 7.55566C50.5635 7.66113 50.2661 7.71387 49.9087 7.71387C49.4312 7.71387 49.0562 7.59082 48.7837 7.34473C48.5142 7.09863 48.3794 6.74854 48.3794 6.29443C48.3794 5.32178 49.1572 4.81201 50.7129 4.76514L51.5303 4.73877V4.43994C51.5303 4.06201 51.4482 3.78369 51.2842 3.60498C51.123 3.42334 50.8638 3.33252 50.5063 3.33252C50.105 3.33252 49.6509 3.45557 49.144 3.70166L48.9199 3.14355C49.1572 3.01465 49.4165 2.91357 49.6978 2.84033C49.9819 2.76709 50.2661 2.73047 50.5503 2.73047C51.1245 2.73047 51.5493 2.85791 51.8247 3.11279C52.103 3.36768 52.2422 3.77637 52.2422 4.33887V7.62598H51.7017ZM50.0537 7.11182C50.5078 7.11182 50.8638 6.9873 51.1216 6.73828C51.3823 6.48926 51.5127 6.14062 51.5127 5.69238V5.25732L50.7832 5.28809C50.2031 5.30859 49.7842 5.39941 49.5264 5.56055C49.2715 5.71875 49.144 5.96631 49.144 6.30322C49.144 6.56689 49.2231 6.76758 49.3813 6.90527C49.5425 7.04297 49.7666 7.11182 50.0537 7.11182Z" fill="#8F959E"/>
<path d="M55.9907 7.71387C55.6772 7.71387 55.3901 7.65674 55.1294 7.54248C54.8716 7.42529 54.6548 7.24658 54.479 7.00635H54.4263C54.4614 7.2876 54.479 7.5542 54.479 7.80615V9.78809H53.7495V2.80957H54.3428L54.4438 3.46875H54.479C54.6665 3.20508 54.8848 3.01465 55.1338 2.89746C55.3828 2.78027 55.6685 2.72168 55.9907 2.72168C56.6294 2.72168 57.1216 2.93994 57.4673 3.37646C57.8159 3.81299 57.9902 4.42529 57.9902 5.21338C57.9902 6.00439 57.813 6.61963 57.4585 7.05908C57.1069 7.49561 56.6177 7.71387 55.9907 7.71387ZM55.8853 3.34131C55.3931 3.34131 55.0371 3.47754 54.8174 3.75C54.5977 4.02246 54.4849 4.45605 54.479 5.05078V5.21338C54.479 5.89014 54.5918 6.375 54.8174 6.66797C55.043 6.95801 55.4048 7.10303 55.9028 7.10303C56.3188 7.10303 56.644 6.93457 56.8784 6.59766C57.1157 6.26074 57.2344 5.79639 57.2344 5.20459C57.2344 4.604 57.1157 4.14404 56.8784 3.82471C56.644 3.50244 56.313 3.34131 55.8853 3.34131Z" fill="#8F959E"/>
<path d="M61.5103 7.71387C61.1968 7.71387 60.9097 7.65674 60.6489 7.54248C60.3911 7.42529 60.1743 7.24658 59.9985 7.00635H59.9458C59.981 7.2876 59.9985 7.5542 59.9985 7.80615V9.78809H59.269V2.80957H59.8623L59.9634 3.46875H59.9985C60.186 3.20508 60.4043 3.01465 60.6533 2.89746C60.9023 2.78027 61.188 2.72168 61.5103 2.72168C62.1489 2.72168 62.6411 2.93994 62.9868 3.37646C63.3354 3.81299 63.5098 4.42529 63.5098 5.21338C63.5098 6.00439 63.3325 6.61963 62.978 7.05908C62.6265 7.49561 62.1372 7.71387 61.5103 7.71387ZM61.4048 3.34131C60.9126 3.34131 60.5566 3.47754 60.3369 3.75C60.1172 4.02246 60.0044 4.45605 59.9985 5.05078V5.21338C59.9985 5.89014 60.1113 6.375 60.3369 6.66797C60.5625 6.95801 60.9243 7.10303 61.4224 7.10303C61.8384 7.10303 62.1636 6.93457 62.3979 6.59766C62.6353 6.26074 62.7539 5.79639 62.7539 5.20459C62.7539 4.604 62.6353 4.14404 62.3979 3.82471C62.1636 3.50244 61.8325 3.34131 61.4048 3.34131Z" fill="#8F959E"/>
<path d="M67.8955 6.31201C67.8955 6.76025 67.7285 7.10596 67.3945 7.34912C67.0605 7.59229 66.5918 7.71387 65.9883 7.71387C65.3496 7.71387 64.8516 7.61279 64.4941 7.41064V6.73389C64.7256 6.85107 64.9731 6.94336 65.2368 7.01074C65.5034 7.07812 65.7598 7.11182 66.0059 7.11182C66.3867 7.11182 66.6797 7.05176 66.8848 6.93164C67.0898 6.80859 67.1924 6.62256 67.1924 6.37354C67.1924 6.18604 67.1104 6.02637 66.9463 5.89453C66.7852 5.75977 66.4688 5.60156 65.9971 5.41992C65.5488 5.25293 65.2295 5.10791 65.0391 4.98486C64.8516 4.85889 64.7109 4.7168 64.6172 4.55859C64.5264 4.40039 64.481 4.21143 64.481 3.9917C64.481 3.59912 64.6406 3.29004 64.96 3.06445C65.2793 2.83594 65.7173 2.72168 66.2739 2.72168C66.7925 2.72168 67.2993 2.82715 67.7944 3.03809L67.5352 3.63135C67.0518 3.43213 66.6138 3.33252 66.2212 3.33252C65.8755 3.33252 65.6147 3.38672 65.439 3.49512C65.2632 3.60352 65.1753 3.75293 65.1753 3.94336C65.1753 4.07227 65.2075 4.18213 65.272 4.27295C65.3394 4.36377 65.4463 4.4502 65.5928 4.53223C65.7393 4.61426 66.0205 4.73291 66.4365 4.88818C67.0078 5.09619 67.3931 5.30566 67.5923 5.5166C67.7944 5.72754 67.8955 5.99268 67.8955 6.31201Z" fill="#8F959E"/>
<path fill-rule="evenodd" clip-rule="evenodd" d="M33.2 6.72336C33.3861 6.8272 33.6077 6.91124 33.8646 6.97549C34.1693 7.04873 34.4696 7.08535 34.7655 7.08535C35.2812 7.08535 35.6811 6.96377 35.9652 6.72061C36.2523 6.47744 36.3959 6.12588 36.3959 5.66592C36.3959 4.76943 35.8466 4.32119 34.7479 4.32119C34.4696 4.32119 34.0976 4.36367 33.6317 4.44863L33.2538 4.20693L33.4955 1.20107H36.6903V1.87344H34.1195L33.9569 3.80264C33.9909 3.79583 34.0249 3.78938 34.0589 3.78326C34.3616 3.7288 34.663 3.70156 34.9633 3.70156C35.64 3.70156 36.1718 3.87002 36.5585 4.20693C36.9481 4.54092 37.143 4.99941 37.143 5.58242C37.143 6.24746 36.9306 6.76895 36.5058 7.14687C36.0839 7.5248 35.5009 7.71377 34.7567 7.71377C34.0331 7.71377 33.4809 7.59805 33.1 7.3666V6.66348C33.1321 6.68412 33.1654 6.70408 33.2 6.72336ZM36.5722 7.22159C36.1269 7.62039 35.5175 7.81377 34.7567 7.81377C34.0251 7.81377 33.4515 7.69723 33.0481 7.45206L33 7.42285V6.48031L33.1541 6.57936C33.3477 6.70382 33.5917 6.80412 33.8885 6.87836C34.1858 6.9498 34.4781 6.98535 34.7655 6.98535C35.2663 6.98535 35.64 6.86729 35.9002 6.64462C36.16 6.42464 36.2959 6.10363 36.2959 5.66592C36.2959 5.23907 36.1661 4.93512 35.9207 4.73485C35.6714 4.53141 35.2862 4.42119 34.7479 4.42119C34.4784 4.42119 34.1131 4.46249 33.6497 4.54701L33.611 4.55407L33.1493 4.25881L33.4032 1.10107H36.7903V1.97344H34.2115L34.0676 3.68016C34.3671 3.62779 34.6657 3.60156 34.9633 3.60156C35.6562 3.60156 36.2138 3.77419 36.6239 4.13127C37.0386 4.48694 37.243 4.9748 37.243 5.58242C37.243 6.27068 37.022 6.82141 36.5722 7.22159ZM38.5705 6.92836C38.1952 6.3426 38.0142 5.49701 38.0142 4.40469C38.0142 3.27879 38.1889 2.42499 38.553 1.85889C38.9223 1.28477 39.4879 1 40.2323 1C40.9621 1 41.5235 1.2988 41.9031 1.8944C42.2811 2.4829 42.4637 3.32385 42.4637 4.40469C42.4637 5.52211 42.2874 6.37412 41.9206 6.94584C41.5513 7.526 40.9827 7.81377 40.2323 7.81377C39.5085 7.81377 38.9501 7.51782 38.5705 6.92836ZM41.8363 6.89199C42.1879 6.34414 42.3637 5.51504 42.3637 4.40469C42.3637 3.33242 42.182 2.51357 41.8188 1.94814C41.4584 1.38271 40.9296 1.1 40.2323 1.1C39.5175 1.1 38.9857 1.371 38.6371 1.91299C38.2885 2.45498 38.1142 3.28555 38.1142 4.40469C38.1142 5.48867 38.2943 6.31191 38.6547 6.87441C39.015 7.43398 39.5409 7.71377 40.2323 7.71377C40.953 7.71377 41.4877 7.43984 41.8363 6.89199ZM41.1978 6.39415C41.4066 5.9822 41.5166 5.32352 41.5166 4.40469C41.5166 3.48568 41.4065 2.83029 41.1981 2.4245C41.0966 2.22293 40.9659 2.07598 40.8085 1.97959C40.6511 1.88316 40.4604 1.83281 40.2323 1.83281C40.0072 1.83281 39.8181 1.88243 39.6613 1.97761C39.5044 2.07277 39.3737 2.21711 39.2709 2.41596C39.0628 2.81547 38.9524 3.47353 38.9524 4.40469C38.9524 5.33556 39.0626 5.99663 39.2709 6.40232C39.3738 6.60111 39.5044 6.74541 39.6613 6.84055C39.8181 6.93573 40.0072 6.98535 40.2323 6.98535C40.4604 6.98535 40.6511 6.935 40.8085 6.83858C40.9659 6.74218 41.0963 6.59572 41.1978 6.39415ZM39.182 6.44814C38.9623 6.02041 38.8524 5.33926 38.8524 4.40469C38.8524 3.47012 38.9623 2.79189 39.182 2.37002C39.4018 1.94521 39.7519 1.73281 40.2323 1.73281C40.7187 1.73281 41.0702 1.94814 41.287 2.37881C41.5067 2.80654 41.6166 3.48184 41.6166 4.40469C41.6166 5.32754 41.5067 6.00576 41.287 6.43936C41.0702 6.87002 40.7187 7.08535 40.2323 7.08535C39.7519 7.08535 39.4018 6.87295 39.182 6.44814ZM43.7209 6.92836C43.3456 6.3426 43.1646 5.49701 43.1646 4.40469C43.1646 3.27879 43.3393 2.42499 43.7034 1.85889C44.0727 1.28477 44.6383 1 45.3827 1C46.1125 1 46.6739 1.2988 47.0535 1.8944C47.4314 2.4829 47.6141 3.32385 47.6141 4.40469C47.6141 5.52211 47.4378 6.37412 47.071 6.94584C46.7017 7.526 46.1331 7.81377 45.3827 7.81377C44.6589 7.81377 44.1005 7.51782 43.7209 6.92836ZM46.9867 6.89199C47.3383 6.34414 47.5141 5.51504 47.5141 4.40469C47.5141 3.33242 47.3324 2.51357 46.9691 1.94814C46.6088 1.38271 46.08 1.1 45.3827 1.1C44.6679 1.1 44.1361 1.371 43.7875 1.91299C43.4389 2.45498 43.2646 3.28555 43.2646 4.40469C43.2646 5.48867 43.4447 6.31191 43.8051 6.87441C44.1654 7.43398 44.6913 7.71377 45.3827 7.71377C46.1034 7.71377 46.6381 7.43984 46.9867 6.89199ZM46.3482 6.39415C46.557 5.9822 46.667 5.32352 46.667 4.40469C46.667 3.48568 46.5569 2.83029 46.3485 2.4245C46.247 2.22293 46.1163 2.07598 45.9589 1.97959C45.8015 1.88316 45.6108 1.83281 45.3827 1.83281C45.1576 1.83281 44.9685 1.88243 44.8117 1.97761C44.6548 2.07277 44.5241 2.21711 44.4212 2.41596C44.2132 2.81547 44.1028 3.47353 44.1028 4.40469C44.1028 5.33566 44.213 5.99677 44.4214 6.40244C44.5242 6.60117 44.6549 6.74543 44.8117 6.84055C44.9685 6.93573 45.1576 6.98535 45.3827 6.98535C45.6108 6.98535 45.8015 6.935 45.9589 6.83858C46.1163 6.74218 46.2467 6.59572 46.3482 6.39415ZM44.3324 6.44814C44.1127 6.02041 44.0028 5.33926 44.0028 4.40469C44.0028 3.47012 44.1127 2.79189 44.3324 2.37002C44.5521 1.94521 44.9022 1.73281 45.3827 1.73281C45.869 1.73281 46.2206 1.94814 46.4374 2.37881C46.6571 2.80654 46.767 3.48184 46.767 4.40469C46.767 5.32754 46.6571 6.00576 46.4374 6.43936C46.2206 6.87002 45.869 7.08535 45.3827 7.08535C44.9022 7.08535 44.5521 6.87295 44.3324 6.44814ZM51.621 7.72588L51.4947 7.12897C51.2823 7.37149 51.0652 7.54615 50.8423 7.64672C50.5884 7.75958 50.2756 7.81377 49.9091 7.81377C49.4144 7.81377 49.0129 7.68603 48.7171 7.41884C48.4219 7.14934 48.2798 6.76917 48.2798 6.29434C48.2798 5.77615 48.4897 5.37324 48.9083 5.09888C49.3199 4.82919 49.925 4.68875 50.7102 4.66509C50.7102 4.66509 50.7102 4.66509 50.7102 4.66509L51.4307 4.64185V4.43984C51.4307 4.07353 51.3507 3.82482 51.2109 3.67251L51.2098 3.67125C51.0751 3.51946 50.8493 3.43242 50.5067 3.43242C50.1253 3.43242 49.6865 3.54953 49.1881 3.79152L49.0916 3.83837L48.7943 3.09809L48.8726 3.05558C49.1175 2.92253 49.3844 2.81859 49.6729 2.74346C49.965 2.66819 50.2578 2.63037 50.5507 2.63037C51.137 2.63037 51.5913 2.76013 51.8928 3.03913C52.2001 3.32062 52.3426 3.76216 52.3426 4.33877V7.72588H51.621ZM51.8251 3.1127C51.5497 2.85781 51.1249 2.73037 50.5507 2.73037C50.2665 2.73037 49.9823 2.76699 49.6981 2.84023C49.4169 2.91348 49.1576 3.01455 48.9203 3.14346L49.1444 3.70156C49.1748 3.68682 49.205 3.67252 49.235 3.65865C49.7055 3.44117 50.1294 3.33242 50.5067 3.33242C50.8642 3.33242 51.1234 3.42324 51.2846 3.60488C51.4486 3.78359 51.5307 4.06191 51.5307 4.43984V4.73867L50.7133 4.76504C49.1576 4.81191 48.3798 5.32168 48.3798 6.29434C48.3798 6.74844 48.5146 7.09854 48.7841 7.34463C49.0565 7.59072 49.4315 7.71377 49.9091 7.71377C50.2665 7.71377 50.5639 7.66104 50.8012 7.55557C51.0237 7.45518 51.2461 7.27186 51.4686 7.00563C51.484 6.98724 51.4994 6.96846 51.5147 6.94928C51.5171 6.94631 51.5195 6.94332 51.5219 6.94033H51.557L51.7021 7.62588H52.2426V4.33877C52.2426 3.77627 52.1034 3.36758 51.8251 3.1127ZM51.0529 6.66587C51.2893 6.4401 51.4131 6.12029 51.4131 5.69229V5.36153L50.7878 5.3879C50.212 5.40826 49.8145 5.49856 49.5798 5.64525C49.3583 5.78269 49.2444 5.99574 49.2444 6.30312C49.2444 6.54572 49.3163 6.7155 49.4471 6.8295C49.5846 6.94676 49.7826 7.01172 50.0541 7.01172C50.4895 7.01172 50.8184 6.89241 51.0529 6.66587ZM49.3817 6.90518C49.2235 6.76748 49.1444 6.5668 49.1444 6.30312C49.1444 5.96621 49.2719 5.71865 49.5268 5.56045C49.7846 5.39932 50.2035 5.3085 50.7836 5.28799L51.5131 5.25723V5.69229C51.5131 6.14053 51.3827 6.48916 51.122 6.73818C50.8642 6.98721 50.5082 7.11172 50.0541 7.11172C49.767 7.11172 49.5429 7.04287 49.3817 6.90518ZM55.0896 7.63397L55.0884 7.63343C54.886 7.54142 54.7077 7.41378 54.5536 7.25137C54.5708 7.44308 54.5794 7.62798 54.5794 7.80605V9.88799H53.6499V2.70947H54.429L54.5136 3.26129C54.6829 3.06097 54.8754 2.90863 55.0916 2.80688C55.356 2.68244 55.6566 2.62158 55.9911 2.62158C56.6552 2.62158 57.1783 2.85003 57.5459 3.31406C57.9134 3.77431 58.0906 4.41171 58.0906 5.21328C58.0906 6.01809 57.9104 6.65854 57.5368 7.12171C57.1638 7.5848 56.6443 7.81377 55.9911 7.81377C55.6652 7.81377 55.3643 7.75432 55.0896 7.63397ZM57.4589 7.05898C57.8134 6.61953 57.9906 6.0043 57.9906 5.21328C57.9906 4.4252 57.8163 3.81289 57.4677 3.37637C57.122 2.93984 56.6298 2.72158 55.9911 2.72158C55.6688 2.72158 55.3832 2.78018 55.1342 2.89736C54.909 3.00333 54.709 3.16918 54.5341 3.39492C54.5171 3.41691 54.5003 3.43947 54.4837 3.4626C54.4823 3.46461 54.4808 3.46663 54.4794 3.46865H54.4442L54.3432 2.80947H53.7499V9.78799H54.4794V7.80605C54.4794 7.58823 54.4663 7.35946 54.44 7.11974C54.4395 7.11525 54.439 7.11075 54.4385 7.10625C54.4361 7.08481 54.4336 7.06328 54.431 7.04166C54.4296 7.02988 54.4281 7.01808 54.4267 7.00625H54.4794C54.4979 7.03149 54.5168 7.05605 54.5362 7.07993C54.7012 7.28335 54.8991 7.43751 55.1298 7.54238C55.3905 7.65664 55.6776 7.71377 55.9911 7.71377C56.6181 7.71377 57.1073 7.49551 57.4589 7.05898ZM56.7971 6.53997C57.0183 6.22581 57.1348 5.7843 57.1348 5.20449C57.1348 4.61502 57.018 4.17956 56.7985 3.88426L56.7979 3.88343C56.5839 3.58918 56.2841 3.44121 55.8856 3.44121C55.4108 3.44121 55.0895 3.57223 54.8956 3.81268C54.697 4.05896 54.5852 4.46489 54.5794 5.05109V5.21328C54.5794 5.88383 54.6921 6.3406 54.8968 6.60664C55.0973 6.86425 55.4244 7.00293 55.9032 7.00293C56.287 7.00293 56.5817 6.84958 56.7971 6.53997ZM54.8178 6.66787C54.5922 6.3749 54.4794 5.89004 54.4794 5.21328V5.05068C54.4853 4.45596 54.598 4.02236 54.8178 3.7499C55.0375 3.47744 55.3935 3.34121 55.8856 3.34121C56.3134 3.34121 56.6444 3.50234 56.8788 3.82461C57.1161 4.14395 57.2348 4.60391 57.2348 5.20449C57.2348 5.79629 57.1161 6.26064 56.8788 6.59756C56.6444 6.93447 56.3192 7.10293 55.9032 7.10293C55.4052 7.10293 55.0434 6.95791 54.8178 6.66787ZM60.6092 7.63397L60.6079 7.63343C60.4055 7.54142 60.2272 7.41378 60.0731 7.25137C60.0903 7.44308 60.0989 7.62798 60.0989 7.80605V9.88799H59.1694V2.70947H59.9485L60.0331 3.26129C60.2024 3.06097 60.3949 2.90863 60.6111 2.80688C60.8756 2.68244 61.1762 2.62158 61.5106 2.62158C62.1747 2.62158 62.6978 2.85003 63.0654 3.31406C63.433 3.77431 63.6102 4.41171 63.6102 5.21328C63.6102 6.01809 63.4299 6.65854 63.0563 7.12171C62.6833 7.5848 62.1638 7.81377 61.5106 7.81377C61.1848 7.81377 60.8838 7.75432 60.6092 7.63397ZM62.9784 7.05898C63.3329 6.61953 63.5102 6.0043 63.5102 5.21328C63.5102 4.4252 63.3358 3.81289 62.9872 3.37637C62.6415 2.93984 62.1493 2.72158 61.5106 2.72158C61.1884 2.72158 60.9027 2.78018 60.6537 2.89736C60.4285 3.00333 60.2285 3.16918 60.0536 3.39492C60.0366 3.41691 60.0198 3.43947 60.0032 3.4626C60.0018 3.46461 60.0004 3.46663 59.9989 3.46865H59.9638L59.8627 2.80947H59.2694V9.78799H59.9989V7.80605C59.9989 7.58823 59.9858 7.35946 59.9595 7.11974C59.959 7.11525 59.9585 7.11075 59.958 7.10625C59.9556 7.08481 59.9531 7.06328 59.9505 7.04166C59.9491 7.02988 59.9477 7.01808 59.9462 7.00625H59.9989C60.0174 7.03149 60.0363 7.05605 60.0557 7.07993C60.2207 7.28335 60.4186 7.43751 60.6493 7.54238C60.9101 7.65664 61.1972 7.71377 61.5106 7.71377C62.1376 7.71377 62.6269 7.49551 62.9784 7.05898ZM62.3166 6.53997C62.5379 6.22581 62.6543 5.7843 62.6543 5.20449C62.6543 4.61502 62.5375 4.17956 62.3181 3.88426L62.3175 3.88343C62.1035 3.58918 61.8037 3.44121 61.4052 3.44121C60.9303 3.44121 60.6091 3.57223 60.4151 3.81268C60.2165 4.05896 60.1048 4.46489 60.0989 5.05109V5.21328C60.0989 5.88383 60.2116 6.3406 60.4164 6.60664C60.6168 6.86425 60.9439 7.00293 61.4228 7.00293C61.8066 7.00293 62.1012 6.84958 62.3166 6.53997ZM60.3373 6.66787C60.1117 6.3749 59.9989 5.89004 59.9989 5.21328V5.05068C60.0048 4.45596 60.1176 4.02236 60.3373 3.7499C60.557 3.47744 60.913 3.34121 61.4052 3.34121C61.8329 3.34121 62.164 3.50234 62.3983 3.82461C62.6356 4.14395 62.7543 4.60391 62.7543 5.20449C62.7543 5.79629 62.6356 6.26064 62.3983 6.59756C62.164 6.93447 61.8388 7.10293 61.4228 7.10293C60.9247 7.10293 60.5629 6.95791 60.3373 6.66787ZM64.3945 7.46887V6.57107L64.5397 6.64457C64.7643 6.75827 65.0049 6.84803 65.2617 6.91369C65.5212 6.97928 65.7693 7.01172 66.0062 7.01172C66.3788 7.01172 66.6511 6.9526 66.8342 6.84547C67.0074 6.7414 67.0928 6.58889 67.0928 6.37344C67.0928 6.22021 67.0278 6.08787 66.884 5.97238L66.8825 5.97116C66.7355 5.84817 66.4336 5.69495 65.962 5.51334C65.513 5.34604 65.1852 5.19801 64.9852 5.06876L64.9837 5.06778C64.7866 4.93536 64.6344 4.78305 64.5315 4.60948L64.5308 4.60829C64.4297 4.43211 64.3813 4.22523 64.3813 3.9916C64.3813 3.5668 64.5566 3.22726 64.9024 2.98286C65.2444 2.73819 65.7054 2.62158 66.2743 2.62158C66.8069 2.62158 67.327 2.72998 67.834 2.94599L67.9269 2.98555L67.588 3.76101L67.4974 3.72371C67.0223 3.52791 66.5975 3.43242 66.2216 3.43242C65.8833 3.43242 65.6445 3.486 65.4918 3.58014C65.3426 3.67217 65.2757 3.79091 65.2757 3.94326C65.2757 4.05434 65.303 4.14289 65.3533 4.21409C65.4093 4.28919 65.5029 4.36698 65.642 4.44488C65.7809 4.52264 66.0552 4.63887 66.4716 4.79428C67.0444 5.00288 67.4487 5.21864 67.6651 5.44758C67.8867 5.6789 67.9959 5.96955 67.9959 6.31191C67.9959 6.78897 67.8161 7.16609 67.4538 7.42987C67.0964 7.69003 66.604 7.81377 65.9887 7.81377C65.3415 7.81377 64.8239 7.71169 64.4453 7.49759L64.3945 7.46887ZM67.5927 5.5165C67.3935 5.30557 67.0082 5.09609 66.4369 4.88809C66.0209 4.73281 65.7396 4.61416 65.5932 4.53213C65.4467 4.4501 65.3397 4.36367 65.2724 4.27285C65.2079 4.18203 65.1757 4.07217 65.1757 3.94326C65.1757 3.75283 65.2636 3.60342 65.4394 3.49502C65.6151 3.38662 65.8759 3.33242 66.2216 3.33242C66.6142 3.33242 67.0521 3.43203 67.5355 3.63125L67.7948 3.03799C67.764 3.02487 67.7332 3.01217 67.7023 2.99987C67.2366 2.81435 66.7606 2.72158 66.2743 2.72158C65.7177 2.72158 65.2797 2.83584 64.9604 3.06436C64.641 3.28994 64.4813 3.59902 64.4813 3.9916C64.4813 4.21133 64.5268 4.40029 64.6176 4.5585C64.7113 4.7167 64.852 4.85879 65.0395 4.98477C65.2299 5.10781 65.5492 5.25283 65.9975 5.41982C66.4691 5.60146 66.7855 5.75967 66.9467 5.89443C67.1107 6.02627 67.1928 6.18594 67.1928 6.37344C67.1928 6.62246 67.0902 6.8085 66.8852 6.93154C66.6801 7.05166 66.3871 7.11172 66.0062 7.11172C65.7602 7.11172 65.5038 7.07803 65.2372 7.01064C65.0111 6.95287 64.7969 6.87679 64.5945 6.7824C64.5609 6.76671 64.5275 6.7505 64.4945 6.73379V7.41055C64.852 7.6127 65.35 7.71377 65.9887 7.71377C66.5922 7.71377 67.0609 7.59219 67.3949 7.34902C67.7289 7.10586 67.8959 6.76016 67.8959 6.31191C67.8959 5.99258 67.7948 5.72744 67.5927 5.5165Z" fill="#8F959E"/>
<path fill-rule="evenodd" clip-rule="evenodd" d="M20.593 11.8652C20.593 8.43336 18.6492 5.45813 15.8085 3.99267L16.5684 2.11198C20.1443 3.88314 22.6047 7.58526 22.6047 11.8654C22.6047 14.1172 21.9237 16.209 20.7575 17.9439L22.0148 18.9183L22.244 19.6216C22.3965 20.2745 23.1159 20.7805 24.4057 21.1984C24.6051 21.263 25.0462 21.4131 25.0462 21.4131C25.1382 21.444 25.2105 21.4776 25.287 21.5132C25.3072 21.5226 25.3278 21.5321 25.349 21.5418C25.5125 21.616 25.6877 21.7286 25.9264 21.9412C26.8913 22.8006 28.6823 25.509 28.6823 25.509C29.6545 26.9135 28.1856 28.3555 28.1856 28.3555C28.1856 28.3555 26.7866 29.7169 24.986 28.4824C23.1853 27.2478 22.0946 26.3249 22.0946 26.3249C22.0137 26.2196 21.9236 26.1201 21.8367 26.0241C21.7063 25.88 21.583 25.7436 21.5077 25.607C21.2726 25.1801 20.9366 24.3139 20.6302 23.4957C20.3321 22.6995 20.0506 22.5932 19.3456 22.3823C19.1743 22.3311 18.757 22.1715 18.757 22.1715L17.8223 20.8886C16.1021 22.0519 14.0311 22.7308 11.8024 22.7308C10.6476 22.7308 9.53517 22.5486 8.49193 22.2111L9.90746 20.5014C10.5177 20.6363 11.1517 20.7073 11.8022 20.7073C16.6572 20.7073 20.593 16.7486 20.593 11.8652ZM6.95904 19.2456C4.58035 17.6632 3.01138 14.9485 3.01138 11.8652C3.01138 6.98188 6.94716 3.02313 11.8022 3.02313C12.1218 3.02313 12.4374 3.04029 12.7481 3.07373L14.1659 1.26087C13.4052 1.09009 12.6143 1 11.8024 1C5.83638 1 1 5.86461 1 11.8654C1 15.7985 3.07768 19.2436 6.18932 21.1507L6.95904 19.2456ZM6.75345 12.8431L15.4281 1.7291L12.3729 9.29083L17.4647 9.28139L7.44387 21.4907L10.9985 12.6927L6.75345 12.8431Z" fill="#335EEA"/>
<path d="M33.4245 29V17.3579H41.8307V18.6241H34.7434V22.669H41.0569V23.9528H34.7434V29H33.4245ZM44.3984 18.7297V17.0062H45.8229V18.7297H44.3984ZM44.4512 29V20.2069H45.7701V29H44.4512ZM49.1129 29V20.2069H50.4319V21.5786C50.7484 21.1566 51.1353 20.799 51.5925 20.5059C52.0498 20.2128 52.636 20.0662 53.3512 20.0662C53.9608 20.0662 54.5294 20.2128 55.057 20.5059C55.5963 20.7872 56.0301 21.2152 56.3584 21.7897C56.6984 22.3524 56.8684 23.05 56.8684 23.8824V29H55.5494V23.9176C55.5494 23.1203 55.3208 22.4814 54.8636 22.0007C54.4063 21.5083 53.8143 21.2621 53.0874 21.2621C52.595 21.2621 52.1494 21.3734 51.7508 21.5962C51.3522 21.819 51.0298 22.1355 50.7836 22.5459C50.5491 22.9445 50.4319 23.4076 50.4319 23.9352V29H49.1129ZM63.8397 29.1407C62.9838 29.1407 62.2335 28.9414 61.5887 28.5428C60.9556 28.1324 60.4631 27.5814 60.1114 26.8897C59.7597 26.1979 59.5838 25.4359 59.5838 24.6034C59.5838 23.7593 59.7597 22.9972 60.1114 22.3172C60.4631 21.6255 60.9556 21.0803 61.5887 20.6817C62.2335 20.2714 62.9838 20.0662 63.8397 20.0662C64.5666 20.0662 65.188 20.2069 65.7038 20.4883C66.2314 20.7697 66.6593 21.1507 66.9876 21.6314V16.6897H68.3066V29H66.9876V27.5931C66.6593 28.0621 66.2314 28.4372 65.7038 28.7186C65.188 29 64.5666 29.1407 63.8397 29.1407ZM64.0156 27.9448C64.6721 27.9448 65.2231 27.7924 65.6687 27.4876C66.1259 27.1828 66.4718 26.7783 66.7062 26.2741C66.9407 25.7583 67.058 25.2014 67.058 24.6034C67.058 23.9938 66.9407 23.4369 66.7062 22.9328C66.4718 22.4286 66.1259 22.0241 65.6687 21.7193C65.2231 21.4145 64.6721 21.2621 64.0156 21.2621C63.3707 21.2621 62.8138 21.4145 62.3449 21.7193C61.8759 22.0241 61.5183 22.4286 61.2721 22.9328C61.0259 23.4369 60.9028 23.9938 60.9028 24.6034C60.9028 25.2014 61.0259 25.7583 61.2721 26.2741C61.5183 26.7783 61.8759 27.1828 62.3449 27.4876C62.8138 27.7924 63.3707 27.9448 64.0156 27.9448ZM75.5473 29.1407C74.6563 29.1407 73.8766 28.9414 73.2083 28.5428C72.5401 28.1324 72.0183 27.5814 71.6432 26.8897C71.2797 26.1979 71.098 25.4359 71.098 24.6034C71.098 23.7593 71.2738 22.9972 71.6256 22.3172C71.9773 21.6255 72.4814 21.0803 73.138 20.6817C73.7945 20.2714 74.5683 20.0662 75.4594 20.0662C76.3621 20.0662 77.1359 20.2714 77.7807 20.6817C78.4373 21.0803 78.9414 21.6255 79.2932 22.3172C79.6449 22.9972 79.8207 23.7593 79.8207 24.6034V25.131H72.4521C72.5225 25.6469 72.6866 26.1217 72.9445 26.5555C73.2142 26.9776 73.5718 27.3176 74.0173 27.5755C74.4628 27.8217 74.9787 27.9448 75.5649 27.9448C76.1863 27.9448 76.708 27.81 77.1301 27.5403C77.5521 27.259 77.8804 26.9014 78.1149 26.4676H79.557C79.2521 27.2531 78.7656 27.8979 78.0973 28.4021C77.4407 28.8945 76.5907 29.1407 75.5473 29.1407ZM72.4697 23.9H78.449C78.3318 23.1497 78.0152 22.5224 77.4994 22.0183C76.9835 21.5141 76.3035 21.2621 75.4594 21.2621C74.6152 21.2621 73.9352 21.5141 73.4194 22.0183C72.9152 22.5224 72.5987 23.1497 72.4697 23.9ZM82.4875 29V20.2069H83.8065V22.37C83.8534 22.2176 83.9413 22.0183 84.0703 21.7721C84.211 21.5141 84.4103 21.2562 84.6682 20.9983C84.9261 20.7403 85.2486 20.5234 85.6355 20.3476C86.0341 20.16 86.503 20.0662 87.0424 20.0662H87.1303V21.3852H86.972C86.3155 21.3852 85.7468 21.5669 85.2661 21.9303C84.7972 22.2821 84.4337 22.7452 84.1758 23.3197C83.9296 23.8824 83.8065 24.4862 83.8065 25.131V29H82.4875ZM88.6041 29V27.2062H90.31V29H88.6041ZM93.3897 18.7297V17.0062H94.8142V18.7297H93.3897ZM93.4425 29V20.2069H94.7615V29H93.4425ZM101.92 29.1407C101.029 29.1407 100.256 28.9414 99.599 28.5428C98.9425 28.1324 98.4384 27.5814 98.0866 26.8897C97.7349 26.1979 97.559 25.4359 97.559 24.6034C97.559 23.7593 97.7349 22.9972 98.0866 22.3172C98.4384 21.6255 98.9425 21.0803 99.599 20.6817C100.256 20.2714 101.029 20.0662 101.92 20.0662C102.823 20.0662 103.597 20.2714 104.242 20.6817C104.898 21.0803 105.402 21.6255 105.754 22.3172C106.106 22.9972 106.282 23.7593 106.282 24.6034C106.282 25.4359 106.106 26.1979 105.754 26.8897C105.402 27.5814 104.898 28.1324 104.242 28.5428C103.597 28.9414 102.823 29.1407 101.92 29.1407ZM101.92 27.9448C102.577 27.9448 103.128 27.7924 103.574 27.4876C104.031 27.1828 104.377 26.7783 104.611 26.2741C104.846 25.7583 104.963 25.2014 104.963 24.6034C104.963 23.9938 104.846 23.4369 104.611 22.9328C104.377 22.4286 104.031 22.0241 103.574 21.7193C103.128 21.4145 102.577 21.2621 101.92 21.2621C101.276 21.2621 100.725 21.4145 100.267 21.7193C99.8101 22.0241 99.4642 22.4286 99.2297 22.9328C98.9953 23.4369 98.878 23.9938 98.878 24.6034C98.878 25.2014 98.9953 25.7583 99.2297 26.2741C99.4642 26.7783 99.8101 27.1828 100.267 27.4876C100.725 27.7924 101.276 27.9448 101.92 27.9448Z" fill="#335EEA"/>
<path d="M33.4245 29H32.9245V29.5H33.4245V29ZM33.4245 17.3579V16.8579H32.9245V17.3579H33.4245ZM41.8307 17.3579H42.3307V16.8579H41.8307V17.3579ZM41.8307 18.6241V19.1241H42.3307V18.6241H41.8307ZM34.7434 18.6241V18.1241H34.2434V18.6241H34.7434ZM34.7434 22.669H34.2434V23.169H34.7434V22.669ZM41.0569 22.669H41.5569V22.169H41.0569V22.669ZM41.0569 23.9528V24.4528H41.5569V23.9528H41.0569ZM34.7434 23.9528V23.4528H34.2434V23.9528H34.7434ZM34.7434 29V29.5H35.2434V29H34.7434ZM33.9245 29V17.3579H32.9245V29H33.9245ZM33.4245 17.8579H41.8307V16.8579H33.4245V17.8579ZM41.3307 17.3579V18.6241H42.3307V17.3579H41.3307ZM41.8307 18.1241H34.7434V19.1241H41.8307V18.1241ZM34.2434 18.6241V22.669H35.2434V18.6241H34.2434ZM34.7434 23.169H41.0569V22.169H34.7434V23.169ZM40.5569 22.669V23.9528H41.5569V22.669H40.5569ZM41.0569 23.4528H34.7434V24.4528H41.0569V23.4528ZM34.2434 23.9528V29H35.2434V23.9528H34.2434ZM34.7434 28.5H33.4245V29.5H34.7434V28.5ZM44.3984 18.7297H43.8984V19.2297H44.3984V18.7297ZM44.3984 17.0062V16.5062H43.8984V17.0062H44.3984ZM45.8229 17.0062H46.3229V16.5062H45.8229V17.0062ZM45.8229 18.7297V19.2297H46.3229V18.7297H45.8229ZM44.4512 29H43.9512V29.5H44.4512V29ZM44.4512 20.2069V19.7069H43.9512V20.2069H44.4512ZM45.7701 20.2069H46.2701V19.7069H45.7701V20.2069ZM45.7701 29V29.5H46.2701V29H45.7701ZM44.8984 18.7297V17.0062H43.8984V18.7297H44.8984ZM44.3984 17.5062H45.8229V16.5062H44.3984V17.5062ZM45.3229 17.0062V18.7297H46.3229V17.0062H45.3229ZM45.8229 18.2297H44.3984V19.2297H45.8229V18.2297ZM44.9512 29V20.2069H43.9512V29H44.9512ZM44.4512 20.7069H45.7701V19.7069H44.4512V20.7069ZM45.2701 20.2069V29H46.2701V20.2069H45.2701ZM45.7701 28.5H44.4512V29.5H45.7701V28.5ZM49.1129 29H48.6129V29.5H49.1129V29ZM49.1129 20.2069V19.7069H48.6129V20.2069H49.1129ZM50.4319 20.2069H50.9319V19.7069H50.4319V20.2069ZM50.4319 21.5786H49.9319V23.0786L50.8319 21.8786L50.4319 21.5786ZM51.5925 20.5059L51.8624 20.9268L51.8624 20.9268L51.5925 20.5059ZM55.057 20.5059L54.8141 20.9431L54.8257 20.9492L55.057 20.5059ZM56.3584 21.7897L55.9242 22.0378L55.9304 22.0482L56.3584 21.7897ZM56.8684 29V29.5H57.3684V29H56.8684ZM55.5494 29H55.0494V29.5H55.5494V29ZM54.8636 22.0007L54.4972 22.3409L54.5013 22.3453L54.8636 22.0007ZM51.7508 21.5962L51.5069 21.1597L51.5069 21.1597L51.7508 21.5962ZM50.7836 22.5459L50.3548 22.2886L50.3526 22.2924L50.7836 22.5459ZM50.4319 29V29.5H50.9319V29H50.4319ZM49.6129 29V20.2069H48.6129V29H49.6129ZM49.1129 20.7069H50.4319V19.7069H49.1129V20.7069ZM49.9319 20.2069V21.5786H50.9319V20.2069H49.9319ZM50.8319 21.8786C51.1115 21.5057 51.4539 21.1887 51.8624 20.9268L51.3227 20.0849C50.8167 20.4093 50.3853 20.8074 50.0319 21.2786L50.8319 21.8786ZM51.8624 20.9268C52.2173 20.6993 52.7019 20.5662 53.3512 20.5662V19.5662C52.57 19.5662 51.8823 19.7262 51.3227 20.0849L51.8624 20.9268ZM53.3512 20.5662C53.8768 20.5662 54.3617 20.6915 54.8142 20.9429L55.2998 20.0688C54.6972 19.734 54.0449 19.5662 53.3512 19.5662V20.5662ZM54.8257 20.9492C55.2727 21.1824 55.6392 21.5388 55.9243 22.0377L56.7925 21.5416C56.4211 20.8915 55.92 20.3921 55.2883 20.0626L54.8257 20.9492ZM55.9304 22.0482C56.2123 22.5147 56.3684 23.1172 56.3684 23.8824H57.3684C57.3684 22.9828 57.1845 22.1901 56.7864 21.5311L55.9304 22.0482ZM56.3684 23.8824V29H57.3684V23.8824H56.3684ZM56.8684 28.5H55.5494V29.5H56.8684V28.5ZM56.0494 29V23.9176H55.0494V29H56.0494ZM56.0494 23.9176C56.0494 23.0195 55.7888 22.2479 55.2259 21.6561L54.5013 22.3453C54.8529 22.7149 55.0494 23.2212 55.0494 23.9176H56.0494ZM55.23 21.6605C54.6698 21.0572 53.9406 20.7621 53.0874 20.7621V21.7621C53.6879 21.7621 54.1429 21.9593 54.4972 22.3409L55.23 21.6605ZM53.0874 20.7621C52.5165 20.7621 51.9859 20.8921 51.5069 21.1597L51.9947 22.0327C52.313 21.8548 52.6735 21.7621 53.0874 21.7621V20.7621ZM51.5069 21.1597C51.0284 21.4272 50.6437 21.8072 50.3548 22.2886L51.2123 22.8031C51.4159 22.4639 51.676 22.2108 51.9947 22.0327L51.5069 21.1597ZM50.3526 22.2924C50.0669 22.7781 49.9319 23.3312 49.9319 23.9352H50.9319C50.9319 23.484 51.0313 23.1108 51.2145 22.7994L50.3526 22.2924ZM49.9319 23.9352V29H50.9319V23.9352H49.9319ZM50.4319 28.5H49.1129V29.5H50.4319V28.5ZM61.5887 28.5428L61.3166 28.9624L61.3257 28.9681L61.5887 28.5428ZM60.1114 22.3172L60.5555 22.547L60.5571 22.5439L60.1114 22.3172ZM61.5887 20.6817L61.8551 21.1048L61.8571 21.1036L61.5887 20.6817ZM65.7038 20.4883L65.4644 20.9272L65.4685 20.9295L65.7038 20.4883ZM66.9876 21.6314L66.5747 21.9134L67.4876 23.2501V21.6314H66.9876ZM66.9876 16.6897V16.1897H66.4876V16.6897H66.9876ZM68.3066 16.6897H68.8066V16.1897H68.3066V16.6897ZM68.3066 29V29.5H68.8066V29H68.3066ZM66.9876 29H66.4876V29.5H66.9876V29ZM66.9876 27.5931H67.4876V26.0069L66.578 27.3064L66.9876 27.5931ZM65.7038 28.7186L65.4685 28.2774L65.4644 28.2797L65.7038 28.7186ZM65.6687 27.4876L65.3913 27.0715L65.3863 27.0749L65.6687 27.4876ZM66.7062 26.2741L67.1596 26.485L67.1614 26.481L66.7062 26.2741ZM66.7062 22.9328L66.2529 23.1436L66.2529 23.1436L66.7062 22.9328ZM65.6687 21.7193L65.3863 22.132L65.3913 22.1353L65.6687 21.7193ZM62.3449 21.7193L62.0724 21.3001L62.0724 21.3001L62.3449 21.7193ZM61.2721 22.9328L60.8228 22.7133L60.8228 22.7133L61.2721 22.9328ZM61.2721 26.2741L60.8208 26.4895L60.8228 26.4936L61.2721 26.2741ZM62.3449 27.4876L62.6174 27.0684L62.6174 27.0684L62.3449 27.4876ZM63.8397 28.6407C63.0644 28.6407 62.4076 28.4612 61.8516 28.1175L61.3257 28.9681C62.0594 29.4216 62.9032 29.6407 63.8397 29.6407V28.6407ZM61.8606 28.1232C61.3036 27.7621 60.8701 27.2786 60.5571 26.663L59.6657 27.1163C60.0562 27.8842 60.6075 28.5027 61.3167 28.9623L61.8606 28.1232ZM60.5571 26.663C60.2436 26.0466 60.0838 25.363 60.0838 24.6034H59.0838C59.0838 25.5088 59.2757 26.3493 59.6657 27.1163L60.5571 26.663ZM60.0838 24.6034C60.0838 23.8309 60.2442 23.1489 60.5555 22.547L59.6673 22.0875C59.2752 22.8456 59.0838 23.6877 59.0838 24.6034H60.0838ZM60.5571 22.5439C60.8695 21.9295 61.3013 21.4535 61.8551 21.1048L61.3222 20.2586C60.6098 20.7072 60.0568 21.3215 59.6657 22.0906L60.5571 22.5439ZM61.8571 21.1036C62.4123 20.7502 63.0672 20.5662 63.8397 20.5662V19.5662C62.9005 19.5662 62.0546 19.7925 61.3202 20.2599L61.8571 21.1036ZM63.8397 20.5662C64.5025 20.5662 65.0374 20.6943 65.4644 20.9272L65.9433 20.0493C65.3385 19.7195 64.6307 19.5662 63.8397 19.5662V20.5662ZM65.4685 20.9295C65.927 21.1739 66.2932 21.5011 66.5747 21.9134L67.4005 21.3494C67.0255 20.8002 66.5359 20.3654 65.9391 20.0471L65.4685 20.9295ZM67.4876 21.6314V16.6897H66.4876V21.6314H67.4876ZM66.9876 17.1897H68.3066V16.1897H66.9876V17.1897ZM67.8066 16.6897V29H68.8066V16.6897H67.8066ZM68.3066 28.5H66.9876V29.5H68.3066V28.5ZM67.4876 29V27.5931H66.4876V29H67.4876ZM66.578 27.3064C66.2969 27.708 65.9299 28.0314 65.4685 28.2774L65.9391 29.1598C66.533 28.8431 67.0218 28.4162 67.3972 27.8798L66.578 27.3064ZM65.4644 28.2797C65.0374 28.5126 64.5025 28.6407 63.8397 28.6407V29.6407C64.6307 29.6407 65.3385 29.4874 65.9433 29.1576L65.4644 28.2797ZM64.0156 28.4448C64.7508 28.4448 65.4058 28.2733 65.951 27.9002L65.3863 27.0749C65.0405 27.3116 64.5934 27.4448 64.0156 27.4448V28.4448ZM65.946 27.9036C66.4806 27.5472 66.8869 27.0714 67.1596 26.485L66.2529 26.0633C66.0566 26.4852 65.7712 26.8183 65.3913 27.0716L65.946 27.9036ZM67.1614 26.481C67.4271 25.8966 67.558 25.2687 67.558 24.6034H66.558C66.558 25.134 66.4544 25.6199 66.2511 26.0672L67.1614 26.481ZM67.558 24.6034C67.558 23.9281 67.4277 23.2982 67.1596 22.7219L66.2529 23.1436C66.4538 23.5756 66.558 24.0595 66.558 24.6034H67.558ZM67.1596 22.7219C66.8869 22.1355 66.4806 21.6597 65.946 21.3033L65.3913 22.1353C65.7712 22.3886 66.0566 22.7217 66.2529 23.1436L67.1596 22.7219ZM65.951 21.3067C65.4058 20.9336 64.7508 20.7621 64.0156 20.7621V21.7621C64.5934 21.7621 65.0405 21.8953 65.3863 22.132L65.951 21.3067ZM64.0156 20.7621C63.2891 20.7621 62.6343 20.9349 62.0724 21.3001L62.6174 22.1385C62.9934 21.8941 63.4523 21.7621 64.0156 21.7621V20.7621ZM62.0724 21.3001C61.5272 21.6544 61.1086 22.1281 60.8228 22.7133L61.7214 23.1522C61.928 22.7292 62.2246 22.3938 62.6174 22.1385L62.0724 21.3001ZM60.8228 22.7133C60.5404 23.2916 60.4028 23.9245 60.4028 24.6034H61.4028C61.4028 24.0631 61.5114 23.5822 61.7214 23.1522L60.8228 22.7133ZM60.4028 24.6034C60.4028 25.2724 60.5411 25.9033 60.8209 26.4895L61.7233 26.0588C61.5107 25.6133 61.4028 25.1304 61.4028 24.6034H60.4028ZM60.8228 26.4936C61.1086 27.0788 61.5272 27.5525 62.0724 27.9068L62.6174 27.0684C62.2246 26.8131 61.928 26.4777 61.7214 26.0547L60.8228 26.4936ZM62.0724 27.9068C62.6343 28.272 63.2891 28.4448 64.0156 28.4448V27.4448C63.4523 27.4448 62.9934 27.3128 62.6174 27.0684L62.0724 27.9068ZM73.2083 28.5428L72.9467 28.9689L72.9522 28.9722L73.2083 28.5428ZM71.6432 26.8897L71.2005 27.1222L71.2036 27.128L71.6432 26.8897ZM71.6256 22.3172L72.0697 22.547L72.0713 22.5439L71.6256 22.3172ZM73.138 20.6817L73.3975 21.1092L73.403 21.1057L73.138 20.6817ZM77.7807 20.6817L77.5122 21.1036L77.5213 21.1091L77.7807 20.6817ZM79.2932 22.3172L78.8475 22.5439L78.849 22.547L79.2932 22.3172ZM79.8207 25.131V25.631H80.3207V25.131H79.8207ZM72.4521 25.131V24.631H71.8793L71.9567 25.1986L72.4521 25.131ZM72.9445 26.5555L72.5148 26.8111L72.5189 26.818L72.5232 26.8247L72.9445 26.5555ZM74.0173 27.5755L73.7667 28.0083L73.7755 28.0131L74.0173 27.5755ZM77.1301 27.5403L77.3993 27.9618L77.4074 27.9564L77.1301 27.5403ZM78.1149 26.4676V25.9676H77.8168L77.675 26.2298L78.1149 26.4676ZM79.557 26.4676L80.0231 26.6485L80.2873 25.9676H79.557V26.4676ZM78.0973 28.4021L78.3973 28.8021L78.3984 28.8012L78.0973 28.4021ZM72.4697 23.9L71.9769 23.8153L71.8764 24.4H72.4697V23.9ZM78.449 23.9V24.4H79.0332L78.943 23.8228L78.449 23.9ZM77.4994 22.0183L77.8488 21.6607L77.8488 21.6607L77.4994 22.0183ZM73.4194 22.0183L73.0699 21.6607L73.0658 21.6647L73.4194 22.0183ZM75.5473 28.6407C74.7331 28.6407 74.0446 28.4594 73.4645 28.1133L72.9522 28.9722C73.7086 29.4234 74.5794 29.6407 75.5473 29.6407V28.6407ZM73.47 28.1167C72.8767 27.7524 72.4162 27.2662 72.0827 26.6513L71.2036 27.128C71.6205 27.8966 72.2034 28.5124 72.9467 28.9688L73.47 28.1167ZM72.0858 26.6571C71.7625 26.0418 71.598 25.3603 71.598 24.6034H70.598C70.598 25.5114 70.7969 26.3541 71.2005 27.1222L72.0858 26.6571ZM71.598 24.6034C71.598 23.8309 71.7583 23.1489 72.0697 22.547L71.1815 22.0875C70.7894 22.8456 70.598 23.6877 70.598 24.6034H71.598ZM72.0713 22.5439C72.3813 21.9342 72.8213 21.4589 73.3975 21.1091L72.8785 20.2543C72.1415 20.7018 71.5733 21.3169 71.1799 22.0906L72.0713 22.5439ZM73.403 21.1057C73.9687 20.7522 74.6476 20.5662 75.4594 20.5662V19.5662C74.4891 19.5662 73.6204 19.7906 72.873 20.2577L73.403 21.1057ZM75.4594 20.5662C76.2845 20.5662 76.9613 20.7529 77.5123 21.1036L78.0492 20.2599C77.3106 19.7899 76.4397 19.5662 75.4594 19.5662V20.5662ZM77.5213 21.1091C78.0974 21.4589 78.5375 21.9342 78.8475 22.5439L79.7388 22.0906C79.3454 21.3169 78.7772 20.7018 78.0402 20.2543L77.5213 21.1091ZM78.849 22.547C79.1604 23.1489 79.3207 23.8309 79.3207 24.6034H80.3207C80.3207 23.6877 80.1294 22.8456 79.7373 22.0875L78.849 22.547ZM79.3207 24.6034V25.131H80.3207V24.6034H79.3207ZM79.8207 24.631H72.4521V25.631H79.8207V24.631ZM71.9567 25.1986C72.0358 25.7787 72.2215 26.3178 72.5148 26.8111L73.3743 26.3C73.1517 25.9256 73.0091 25.5151 72.9475 25.0635L71.9567 25.1986ZM72.5232 26.8247C72.8371 27.3161 73.2541 27.7114 73.7668 28.0082L74.2678 27.1428C73.8895 26.9238 73.5913 26.6391 73.3659 26.2863L72.5232 26.8247ZM73.7755 28.0131C74.3056 28.3061 74.907 28.4448 75.5649 28.4448V27.4448C75.0503 27.4448 74.62 27.3373 74.2591 27.1379L73.7755 28.0131ZM75.5649 28.4448C76.2587 28.4448 76.8794 28.2938 77.3992 27.9617L76.8609 27.119C76.5366 27.3262 76.1138 27.4448 75.5649 27.4448V28.4448ZM77.4074 27.9564C77.8954 27.6311 78.2803 27.213 78.5547 26.7053L77.675 26.2298C77.4805 26.5897 77.2089 26.8869 76.8527 27.1243L77.4074 27.9564ZM78.1149 26.9676H79.557V25.9676H78.1149V26.9676ZM79.0908 26.2867C78.8194 26.9861 78.3897 27.5552 77.7962 28.0029L78.3984 28.8012C79.1414 28.2407 79.6848 27.5201 80.0231 26.6485L79.0908 26.2867ZM77.7973 28.0021C77.2483 28.4138 76.5122 28.6407 75.5473 28.6407V29.6407C76.6693 29.6407 77.6332 29.3752 78.3973 28.8021L77.7973 28.0021ZM72.4697 24.4H78.449V23.4H72.4697V24.4ZM78.943 23.8228C78.8101 22.9719 78.4461 22.2444 77.8488 21.6607L77.1499 22.3759C77.5843 22.8004 77.8535 23.3274 77.955 23.9772L78.943 23.8228ZM77.8488 21.6607C77.2237 21.0498 76.4102 20.7621 75.4594 20.7621V21.7621C76.1968 21.7621 76.7433 21.9785 77.1499 22.3759L77.8488 21.6607ZM75.4594 20.7621C74.5085 20.7621 73.695 21.0498 73.0699 21.6607L73.7688 22.3759C74.1755 21.9785 74.7219 21.7621 75.4594 21.7621V20.7621ZM73.0658 21.6647C72.4835 22.247 72.1222 22.9704 71.9769 23.8153L72.9625 23.9847C73.0752 23.3289 73.3469 22.7978 73.7729 22.3718L73.0658 21.6647ZM82.4875 29H81.9875V29.5H82.4875V29ZM82.4875 20.2069V19.7069H81.9875V20.2069H82.4875ZM83.8065 20.2069H84.3065V19.7069H83.8065V20.2069ZM83.8065 22.37H83.3065L84.2844 22.517L83.8065 22.37ZM84.0703 21.7721L83.6313 21.5326L83.6274 21.5401L84.0703 21.7721ZM84.6682 20.9983L85.0218 21.3518L85.0218 21.3518L84.6682 20.9983ZM85.6355 20.3476L85.8424 20.8028L85.8484 20.8L85.6355 20.3476ZM87.1303 20.0662H87.6303V19.5662H87.1303V20.0662ZM87.1303 21.3852V21.8852H87.6303V21.3852H87.1303ZM85.2661 21.9303L85.5661 22.3303L85.5677 22.3292L85.2661 21.9303ZM84.1758 23.3197L83.7196 23.1149L83.7177 23.1192L84.1758 23.3197ZM83.8065 29V29.5H84.3065V29H83.8065ZM82.9875 29V20.2069H81.9875V29H82.9875ZM82.4875 20.7069H83.8065V19.7069H82.4875V20.7069ZM83.3065 20.2069V22.37H84.3065V20.2069H83.3065ZM84.2844 22.517C84.318 22.4078 84.3897 22.2399 84.5132 22.0041L83.6274 21.5401C83.493 21.7966 83.3888 22.0274 83.3286 22.223L84.2844 22.517ZM84.5092 22.0115C84.6223 21.8042 84.7898 21.5838 85.0218 21.3518L84.3147 20.6447C84.0307 20.9286 83.7996 21.2241 83.6313 21.5326L84.5092 22.0115ZM85.0218 21.3518C85.2309 21.1427 85.5012 20.9578 85.8424 20.8028L85.4286 19.8924C84.9959 20.0891 84.6214 20.338 84.3147 20.6447L85.0218 21.3518ZM85.8484 20.8C86.1672 20.65 86.5605 20.5662 87.0424 20.5662V19.5662C86.4456 19.5662 85.901 19.67 85.4226 19.8952L85.8484 20.8ZM87.0424 20.5662H87.1303V19.5662H87.0424V20.5662ZM86.6303 20.0662V21.3852H87.6303V20.0662H86.6303ZM87.1303 20.8852H86.972V21.8852H87.1303V20.8852ZM86.972 20.8852C86.2169 20.8852 85.54 21.0965 84.9646 21.5315L85.5677 22.3292C85.9537 22.0373 86.414 21.8852 86.972 21.8852V20.8852ZM84.9661 21.5303C84.4244 21.9366 84.0096 22.469 83.7197 23.1149L84.6319 23.5245C84.8578 23.0213 85.1699 22.6275 85.5661 22.3303L84.9661 21.5303ZM83.7177 23.1192C83.4425 23.7483 83.3065 24.4207 83.3065 25.131H84.3065C84.3065 24.5517 84.4167 24.0165 84.6339 23.5201L83.7177 23.1192ZM83.3065 25.131V29H84.3065V25.131H83.3065ZM83.8065 28.5H82.4875V29.5H83.8065V28.5ZM88.6041 29H88.1041V29.5H88.6041V29ZM88.6041 27.2062V26.7062H88.1041V27.2062H88.6041ZM90.31 27.2062H90.81V26.7062H90.31V27.2062ZM90.31 29V29.5H90.81V29H90.31ZM89.1041 29V27.2062H88.1041V29H89.1041ZM88.6041 27.7062H90.31V26.7062H88.6041V27.7062ZM89.81 27.2062V29H90.81V27.2062H89.81ZM90.31 28.5H88.6041V29.5H90.31V28.5ZM93.3897 18.7297H92.8897V19.2297H93.3897V18.7297ZM93.3897 17.0062V16.5062H92.8897V17.0062H93.3897ZM94.8142 17.0062H95.3142V16.5062H94.8142V17.0062ZM94.8142 18.7297V19.2297H95.3142V18.7297H94.8142ZM93.4425 29H92.9425V29.5H93.4425V29ZM93.4425 20.2069V19.7069H92.9425V20.2069H93.4425ZM94.7615 20.2069H95.2615V19.7069H94.7615V20.2069ZM94.7615 29V29.5H95.2615V29H94.7615ZM93.8897 18.7297V17.0062H92.8897V18.7297H93.8897ZM93.3897 17.5062H94.8142V16.5062H93.3897V17.5062ZM94.3142 17.0062V18.7297H95.3142V17.0062H94.3142ZM94.8142 18.2297H93.3897V19.2297H94.8142V18.2297ZM93.9425 29V20.2069H92.9425V29H93.9425ZM93.4425 20.7069H94.7615V19.7069H93.4425V20.7069ZM94.2615 20.2069V29H95.2615V20.2069H94.2615ZM94.7615 28.5H93.4425V29.5H94.7615V28.5ZM99.599 28.5428L99.334 28.9668L99.3396 28.9702L99.599 28.5428ZM98.0866 22.3172L98.5307 22.547L98.5323 22.5439L98.0866 22.3172ZM99.599 20.6817L99.8586 21.1092L99.864 21.1057L99.599 20.6817ZM104.242 20.6817L103.973 21.1036L103.982 21.1091L104.242 20.6817ZM105.754 22.3172L105.309 22.5439L105.31 22.547L105.754 22.3172ZM105.754 26.8897L105.309 26.663L105.309 26.663L105.754 26.8897ZM104.242 28.5428L104.505 28.9681L104.507 28.9668L104.242 28.5428ZM103.574 27.4876L103.296 27.0715L103.291 27.0749L103.574 27.4876ZM104.611 26.2741L105.064 26.485L105.066 26.481L104.611 26.2741ZM104.611 22.9328L105.064 22.7219L105.064 22.7219L104.611 22.9328ZM103.574 21.7193L103.291 22.132L103.296 22.1353L103.574 21.7193ZM100.267 21.7193L99.99 21.3033L99.99 21.3033L100.267 21.7193ZM99.2297 22.9328L98.7764 22.7219L98.7764 22.7219L99.2297 22.9328ZM99.2297 26.2741L98.7745 26.481L98.7764 26.485L99.2297 26.2741ZM101.92 28.6407C101.106 28.6407 100.425 28.4593 99.8585 28.1154L99.3396 28.9702C100.086 29.4234 100.953 29.6407 101.92 29.6407V28.6407ZM99.864 28.1188C99.2847 27.7567 98.843 27.274 98.5323 26.663L97.6409 27.1163C98.0337 27.8888 98.6003 28.5081 99.334 28.9668L99.864 28.1188ZM98.5323 26.663C98.2189 26.0466 98.059 25.363 98.059 24.6034H97.059C97.059 25.5088 97.2509 26.3493 97.6409 27.1163L98.5323 26.663ZM98.059 24.6034C98.059 23.8309 98.2194 23.1489 98.5307 22.547L97.6425 22.0875C97.2504 22.8456 97.059 23.6877 97.059 24.6034H98.059ZM98.5323 22.5439C98.8423 21.9342 99.2824 21.4589 99.8585 21.1091L99.3396 20.2543C98.6026 20.7018 98.0344 21.3169 97.6409 22.0906L98.5323 22.5439ZM99.864 21.1057C100.43 20.7522 101.109 20.5662 101.92 20.5662V19.5662C100.95 19.5662 100.081 19.7906 99.334 20.2577L99.864 21.1057ZM101.92 20.5662C102.746 20.5662 103.422 20.7529 103.973 21.1036L104.51 20.2599C103.772 19.7899 102.901 19.5662 101.92 19.5662V20.5662ZM103.982 21.1091C104.558 21.4589 104.999 21.9342 105.309 22.5439L106.2 22.0906C105.806 21.3169 105.238 20.7018 104.501 20.2543L103.982 21.1091ZM105.31 22.547C105.621 23.1489 105.782 23.8309 105.782 24.6034H106.782C106.782 23.6877 106.59 22.8456 106.198 22.0875L105.31 22.547ZM105.782 24.6034C105.782 25.363 105.622 26.0466 105.309 26.663L106.2 27.1163C106.59 26.3493 106.782 25.5088 106.782 24.6034H105.782ZM105.309 26.663C104.998 27.274 104.556 27.7567 103.977 28.1188L104.507 28.9668C105.241 28.5081 105.807 27.8888 106.2 27.1163L105.309 26.663ZM103.979 28.1175C103.427 28.4586 102.748 28.6407 101.92 28.6407V29.6407C102.898 29.6407 103.767 29.4241 104.505 28.9681L103.979 28.1175ZM101.92 28.4448C102.656 28.4448 103.311 28.2733 103.856 27.9002L103.291 27.0749C102.945 27.3116 102.498 27.4448 101.92 27.4448V28.4448ZM103.851 27.9036C104.385 27.5472 104.792 27.0714 105.064 26.485L104.158 26.0633C103.962 26.4852 103.676 26.8183 103.296 27.0716L103.851 27.9036ZM105.066 26.481C105.332 25.8966 105.463 25.2687 105.463 24.6034H104.463C104.463 25.134 104.359 25.6199 104.156 26.0672L105.066 26.481ZM105.463 24.6034C105.463 23.9281 105.333 23.2982 105.064 22.7219L104.158 23.1436C104.359 23.5756 104.463 24.0595 104.463 24.6034H105.463ZM105.064 22.7219C104.792 22.1355 104.385 21.6597 103.851 21.3033L103.296 22.1353C103.676 22.3886 103.962 22.7217 104.158 23.1436L105.064 22.7219ZM103.856 21.3067C103.311 20.9336 102.656 20.7621 101.92 20.7621V21.7621C102.498 21.7621 102.945 21.8953 103.291 22.132L103.856 21.3067ZM101.92 20.7621C101.194 20.7621 100.543 20.9347 99.99 21.3033L100.545 22.1353C100.906 21.8942 101.357 21.7621 101.92 21.7621V20.7621ZM99.99 21.3033C99.4554 21.6597 99.0491 22.1355 98.7764 22.7219L99.6831 23.1436C99.8793 22.7217 100.165 22.3886 100.545 22.1353L99.99 21.3033ZM98.7764 22.7219C98.5083 23.2982 98.378 23.9281 98.378 24.6034H99.378C99.378 24.0595 99.4822 23.5756 99.6831 23.1436L98.7764 22.7219ZM98.378 24.6034C98.378 25.2687 98.5089 25.8966 98.7746 26.481L99.6849 26.0672C99.4816 25.6199 99.378 25.134 99.378 24.6034H98.378ZM98.7764 26.485C99.0491 27.0714 99.4554 27.5472 99.99 27.9036L100.545 27.0716C100.165 26.8183 99.8793 26.4852 99.6831 26.0633L98.7764 26.485ZM99.99 27.9036C100.543 28.2722 101.194 28.4448 101.92 28.4448V27.4448C101.357 27.4448 100.906 27.3127 100.545 27.0716L99.99 27.9036Z" fill="#335EEA"/>
</g>
<defs>
<clipPath id="clip0">
<rect width="107" height="30" fill="white"/>
</clipPath>
</defs>
</svg>
